<svg width="72" height="72" viewBox="0 0 72 72" fill="none" xmlns="http://www.w3.org/2000/svg">
<path d="M29.5399 54.48C27.1079 54.48 24.8839 54.064 22.8679 53.232C20.8519 52.4 19.1079 51.216 17.6359 49.68C16.1639 48.112 15.0119 46.272 14.1799 44.16C13.3799 42.016 12.9799 39.68 12.9799 37.152C12.9799 34.72 13.4119 32.464 14.2759 30.384C15.1399 28.304 16.3399 26.48 17.8759 24.912C19.4119 23.344 21.2039 22.128 23.2519 21.264C25.2999 20.4 27.5239 19.968 29.9239 19.968C31.5559 19.968 33.1399 20.208 34.6759 20.688C36.2119 21.168 37.6199 21.84 38.8999 22.704C40.1799 23.536 41.2519 24.512 42.1159 25.632L38.1319 30C37.2999 29.136 36.4359 28.416 35.5399 27.84C34.6759 27.232 33.7639 26.784 32.8039 26.496C31.8759 26.176 30.9159 26.016 29.9239 26.016C28.4519 26.016 27.0599 26.288 25.7479 26.832C24.4679 27.376 23.3479 28.144 22.3879 29.136C21.4599 30.128 20.7239 31.312 20.1799 32.688C19.6359 34.032 19.3639 35.536 19.3639 37.2C19.3639 38.896 19.6199 40.432 20.1319 41.808C20.6759 43.184 21.4279 44.368 22.3879 45.36C23.3799 46.352 24.5479 47.12 25.8919 47.664C27.2679 48.176 28.7719 48.432 30.4039 48.432C31.4599 48.432 32.4839 48.288 33.4759 48C34.4679 47.712 35.3799 47.312 36.2119 46.8C37.0759 46.256 37.8599 45.632 38.5639 44.928L41.6359 49.872C40.8679 50.736 39.8439 51.52 38.5639 52.224C37.2839 52.928 35.8439 53.488 34.2439 53.904C32.6759 54.288 31.1079 54.48 29.5399 54.48ZM48.1444 54V26.448C48.1444 24.912 48.4804 23.552 49.1524 22.368C49.8244 21.152 50.7524 20.208 51.9364 19.536C53.1204 18.832 54.4964 18.48 56.0644 18.48C57.1524 18.48 58.1604 18.672 59.0884 19.056C60.0164 19.408 60.8004 19.904 61.4404 20.544L59.6164 25.008C59.2004 24.656 58.7524 24.384 58.2724 24.192C57.8244 24 57.3924 23.904 56.9764 23.904C56.3364 23.904 55.7924 24.016 55.3444 24.24C54.9284 24.432 54.6084 24.736 54.3844 25.152C54.1924 25.568 54.0964 26.064 54.0964 26.64V54H51.1204C50.5444 54 50.0004 54 49.4884 54C49.0084 54 48.5604 54 48.1444 54ZM44.2084 34.416V29.232H59.8084V34.416H44.2084Z" fill="white"/>
</svg>
