<?xml version="1.0" standalone="no"?>
<!DOCTYPE svg PUBLIC "-//W3C//DTD SVG 20010904//EN"
 "http://www.w3.org/TR/2001/REC-SVG-20010904/DTD/svg10.dtd">
<svg version="1.0" xmlns="http://www.w3.org/2000/svg"
 width="700.000000pt" height="700.000000pt" viewBox="0 0 700.000000 700.000000"
 preserveAspectRatio="xMidYMid meet">
<metadata>
Created by potrace 1.14, written by Peter Selinger 2001-2017
</metadata>
<g transform="translate(0.000000,700.000000) scale(0.100000,-0.100000)"
fill="#000000" stroke="none">
<path d="M5795 5499 c-82 -105 -158 -200 -169 -212 -10 -12 -30 -38 -45 -57
-14 -19 -28 -37 -31 -40 -5 -4 -238 -298 -630 -795 -74 -93 -137 -172 -140
-175 -3 -3 -19 -23 -35 -45 -17 -22 -32 -42 -36 -45 -3 -3 -39 -48 -79 -100
-41 -52 -79 -100 -85 -106 -5 -6 -55 -69 -110 -139 -55 -70 -121 -154 -147
-186 -25 -32 -53 -68 -62 -81 -16 -22 -16 -22 -48 -3 -18 10 -35 21 -38 25 -3
4 -30 24 -61 46 -65 45 -371 268 -410 299 -15 11 -53 38 -84 60 -32 22 -63 45
-69 50 -6 6 -45 35 -86 64 -41 30 -95 69 -120 87 -25 18 -110 80 -190 138 -80
58 -149 109 -155 113 -38 31 -486 354 -497 358 -8 3 -66 -68 -161 -197 -354
-488 -517 -711 -535 -736 -29 -38 -233 -317 -257 -352 -11 -16 -82 -113 -157
-217 -76 -103 -227 -312 -337 -463 -110 -151 -204 -279 -208 -285 -5 -5 -20
-26 -33 -45 -13 -19 -29 -40 -35 -47 -5 -6 -21 -28 -35 -48 -14 -20 -34 -48
-46 -63 -24 -32 -167 -228 -241 -331 l-53 -73 53 -42 c30 -22 138 -102 240
-176 103 -74 233 -169 290 -211 56 -42 105 -75 108 -73 3 2 70 92 150 201 79
109 148 203 154 210 5 7 27 36 48 65 21 29 99 136 173 238 74 102 154 212 177
245 24 33 155 213 292 400 137 187 258 354 269 370 39 56 81 110 89 113 4 2 7
8 7 13 0 6 4 15 10 22 30 37 65 83 137 183 l80 112 424 -309 c233 -170 483
-352 554 -404 72 -52 267 -194 434 -316 251 -183 305 -219 316 -208 7 8 70 86
140 174 69 88 134 169 143 180 9 11 33 40 52 65 19 25 104 133 190 240 85 107
170 215 189 240 19 25 37 47 41 50 3 3 28 34 55 70 55 72 68 89 106 134 14 17
223 281 465 586 447 566 712 899 742 935 70 83 123 158 115 164 -4 4 -30 25
-58 47 -27 21 -56 44 -65 51 -8 7 -109 87 -225 178 -115 92 -219 174 -230 183
-42 36 -78 62 -84 62 -3 0 -73 -86 -156 -191z"/>
</g>
</svg>
