<?xml version="1.0" standalone="no"?>
<!DOCTYPE svg PUBLIC "-//W3C//DTD SVG 20010904//EN"
 "http://www.w3.org/TR/2001/REC-SVG-20010904/DTD/svg10.dtd">
<svg version="1.0" xmlns="http://www.w3.org/2000/svg"
 width="700.000000pt" height="700.000000pt" viewBox="0 0 700.000000 700.000000"
 preserveAspectRatio="xMidYMid meet">
<metadata>
Created by potrace 1.14, written by Peter Selinger 2001-2017
</metadata>
<g transform="translate(0.000000,700.000000) scale(0.100000,-0.100000)"
fill="#000000" stroke="none">
<path d="M5279 5186 c-145 -31 -268 -97 -374 -201 -118 -115 -190 -264 -214
-438 -6 -43 -11 -148 -11 -233 l0 -154 -190 0 -190 0 0 -250 0 -250 190 0 190
0 0 -955 0 -955 290 0 290 0 0 955 0 955 275 0 275 0 0 250 0 250 -276 0 -276
0 4 178 c3 172 4 178 30 224 33 56 73 82 158 104 100 25 204 3 302 -64 l44
-31 88 217 88 216 -38 33 c-52 44 -172 106 -259 133 -89 28 -296 36 -396 16z"/>
<path d="M2710 5049 c-401 -46 -769 -237 -1032 -536 -181 -205 -319 -479 -377
-748 -63 -288 -47 -650 40 -949 64 -217 224 -492 382 -654 422 -434 1100 -575
1741 -361 221 73 424 188 532 301 l52 53 -107 170 c-58 94 -125 201 -149 239
l-42 67 -58 -51 c-139 -125 -335 -226 -517 -266 -120 -26 -348 -24 -485 5
-267 56 -486 202 -625 415 -106 162 -156 312 -175 529 -32 348 71 669 287 897
132 139 280 226 472 277 83 23 117 26 251 26 140 1 163 -2 245 -27 177 -53
342 -149 482 -280 55 -51 79 -67 89 -60 25 17 374 406 374 416 0 6 -44 55 -97
108 -230 228 -546 381 -880 425 -118 16 -285 17 -403 4z"/>
</g>
</svg>
