<svg width="204" height="39" viewBox="0 0 204 39" fill="none" xmlns="http://www.w3.org/2000/svg">
<path d="M17.3805 38.48C14.9485 38.48 12.7245 38.064 10.7085 37.232C8.6925 36.4 6.9485 35.216 5.4765 33.68C4.0045 32.112 2.8525 30.272 2.0205 28.16C1.2205 26.016 0.820503 23.68 0.820503 21.152C0.820503 18.72 1.2525 16.464 2.1165 14.384C2.9805 12.304 4.1805 10.48 5.7165 8.912C7.2525 7.344 9.0445 6.128 11.0925 5.264C13.1405 4.4 15.3645 3.968 17.7645 3.968C19.3965 3.968 20.9805 4.208 22.5165 4.688C24.0525 5.168 25.4605 5.84 26.7405 6.704C28.0205 7.536 29.0925 8.512 29.9565 9.632L25.9725 14C25.1405 13.136 24.2765 12.416 23.3805 11.84C22.5165 11.232 21.6045 10.784 20.6445 10.496C19.7165 10.176 18.7565 10.016 17.7645 10.016C16.2925 10.016 14.9005 10.288 13.5885 10.832C12.3085 11.376 11.1885 12.144 10.2285 13.136C9.3005 14.128 8.5645 15.312 8.0205 16.688C7.4765 18.032 7.2045 19.536 7.2045 21.2C7.2045 22.896 7.4605 24.432 7.9725 25.808C8.5165 27.184 9.2685 28.368 10.2285 29.36C11.2205 30.352 12.3885 31.12 13.7325 31.664C15.1085 32.176 16.6125 32.432 18.2445 32.432C19.3005 32.432 20.3245 32.288 21.3165 32C22.3085 31.712 23.2205 31.312 24.0525 30.8C24.9165 30.256 25.7005 29.632 26.4045 28.928L29.4765 33.872C28.7085 34.736 27.6845 35.52 26.4045 36.224C25.1245 36.928 23.6845 37.488 22.0845 37.904C20.5165 38.288 18.9485 38.48 17.3805 38.48ZM48.129 38V21.824C48.129 20.448 47.665 19.376 46.737 18.608C45.841 17.808 44.673 17.408 43.233 17.408C41.889 17.408 40.673 17.68 39.585 18.224C38.497 18.768 37.489 19.6 36.561 20.72L32.865 17.072C34.401 15.472 36.081 14.256 37.905 13.424C39.729 12.592 41.713 12.176 43.857 12.176C45.841 12.176 47.569 12.496 49.041 13.136C50.513 13.776 51.649 14.736 52.449 16.016C53.249 17.264 53.649 18.8 53.649 20.624V38H48.129ZM40.881 38.48C39.249 38.48 37.793 38.16 36.513 37.52C35.233 36.88 34.209 36 33.441 34.88C32.705 33.728 32.337 32.384 32.337 30.848C32.337 29.536 32.577 28.368 33.057 27.344C33.537 26.32 34.241 25.488 35.169 24.848C36.129 24.176 37.313 23.664 38.721 23.312C40.161 22.96 41.809 22.784 43.665 22.784H50.961L50.529 27.008H43.329C42.497 27.008 41.745 27.088 41.073 27.248C40.401 27.408 39.825 27.648 39.345 27.968C38.897 28.288 38.561 28.672 38.337 29.12C38.113 29.536 38.001 30.048 38.001 30.656C38.001 31.264 38.145 31.808 38.433 32.288C38.753 32.768 39.185 33.136 39.729 33.392C40.305 33.648 40.961 33.776 41.697 33.776C42.721 33.776 43.697 33.6 44.625 33.248C45.585 32.864 46.433 32.368 47.169 31.76C47.905 31.12 48.481 30.4 48.897 29.6L50.097 32.864C49.425 33.984 48.593 34.96 47.601 35.792C46.641 36.624 45.585 37.28 44.433 37.76C43.313 38.24 42.129 38.48 40.881 38.48ZM67.1321 38.48C64.8921 38.48 62.8761 38.112 61.0841 37.376C59.3241 36.608 57.8841 35.52 56.7641 34.112L60.6041 30.8C61.5641 31.888 62.6361 32.672 63.8201 33.152C65.0041 33.632 66.2521 33.872 67.5641 33.872C68.1081 33.872 68.5881 33.808 69.0041 33.68C69.4521 33.552 69.8361 33.36 70.1561 33.104C70.4761 32.848 70.7161 32.56 70.8761 32.24C71.0681 31.888 71.1641 31.504 71.1641 31.088C71.1641 30.32 70.8761 29.712 70.3001 29.264C69.9801 29.04 69.4681 28.8 68.7641 28.544C68.0921 28.288 67.2121 28.032 66.1241 27.776C64.3961 27.328 62.9561 26.816 61.8041 26.24C60.6521 25.632 59.7561 24.96 59.1161 24.224C58.5721 23.616 58.1561 22.928 57.8681 22.16C57.6121 21.392 57.4841 20.56 57.4841 19.664C57.4841 18.544 57.7241 17.536 58.2041 16.64C58.7161 15.712 59.4041 14.912 60.2681 14.24C61.1321 13.568 62.1401 13.056 63.2921 12.704C64.4441 12.352 65.6441 12.176 66.8921 12.176C68.1721 12.176 69.4041 12.336 70.5881 12.656C71.8041 12.976 72.9241 13.44 73.9481 14.048C75.0041 14.624 75.9001 15.328 76.6361 16.16L73.3721 19.76C72.7641 19.184 72.0921 18.672 71.3561 18.224C70.6521 17.776 69.9321 17.424 69.1961 17.168C68.4601 16.88 67.7721 16.736 67.1321 16.736C66.5241 16.736 65.9801 16.8 65.5001 16.928C65.0201 17.024 64.6201 17.184 64.3001 17.408C63.9801 17.632 63.7241 17.92 63.5321 18.272C63.3721 18.592 63.2921 18.976 63.2921 19.424C63.3241 19.808 63.4201 20.176 63.5801 20.528C63.7721 20.848 64.0281 21.12 64.3481 21.344C64.7001 21.568 65.2281 21.824 65.9321 22.112C66.6361 22.4 67.5481 22.672 68.6681 22.928C70.2361 23.344 71.5481 23.808 72.6041 24.32C73.6601 24.832 74.4921 25.424 75.1001 26.096C75.7081 26.672 76.1401 27.344 76.3961 28.112C76.6521 28.88 76.7801 29.728 76.7801 30.656C76.7801 32.16 76.3481 33.504 75.4841 34.688C74.6521 35.872 73.5001 36.8 72.0281 37.472C70.5881 38.144 68.9561 38.48 67.1321 38.48ZM80.781 38V2.48H86.637V17.888L85.533 18.464C85.853 17.312 86.477 16.272 87.405 15.344C88.333 14.384 89.437 13.616 90.717 13.04C91.997 12.464 93.309 12.176 94.653 12.176C96.573 12.176 98.173 12.56 99.453 13.328C100.765 14.096 101.741 15.248 102.381 16.784C103.053 18.32 103.389 20.24 103.389 22.544V38H97.485V22.976C97.485 21.696 97.309 20.64 96.957 19.808C96.605 18.944 96.061 18.32 95.325 17.936C94.589 17.52 93.693 17.328 92.637 17.36C91.773 17.36 90.973 17.504 90.237 17.792C89.533 18.048 88.909 18.432 88.365 18.944C87.853 19.424 87.437 19.984 87.117 20.624C86.829 21.264 86.685 21.968 86.685 22.736V38H83.757C83.181 38 82.637 38 82.125 38C81.645 38 81.197 38 80.781 38Z" fill="#0F172A"/>
<path d="M111.135 38V10.448C111.135 8.912 111.471 7.552 112.143 6.368C112.815 5.152 113.743 4.208 114.927 3.536C116.111 2.832 117.487 2.48 119.055 2.48C120.143 2.48 121.151 2.672 122.079 3.056C123.007 3.408 123.791 3.904 124.431 4.544L122.607 9.008C122.191 8.656 121.743 8.384 121.263 8.192C120.815 8 120.383 7.904 119.967 7.904C119.327 7.904 118.783 8.016 118.335 8.24C117.919 8.432 117.599 8.736 117.375 9.152C117.183 9.568 117.087 10.064 117.087 10.64V38H114.111C113.535 38 112.991 38 112.479 38C111.999 38 111.551 38 111.135 38ZM107.199 18.416V13.232H122.799V18.416H107.199ZM137.105 38.48C134.577 38.48 132.321 37.92 130.337 36.8C128.353 35.648 126.785 34.08 125.633 32.096C124.481 30.112 123.905 27.856 123.905 25.328C123.905 22.8 124.481 20.544 125.633 18.56C126.785 16.576 128.353 15.024 130.337 13.904C132.321 12.752 134.577 12.176 137.105 12.176C139.601 12.176 141.841 12.752 143.825 13.904C145.809 15.024 147.361 16.576 148.481 18.56C149.633 20.544 150.209 22.8 150.209 25.328C150.209 27.856 149.633 30.112 148.481 32.096C147.361 34.08 145.809 35.648 143.825 36.8C141.841 37.92 139.601 38.48 137.105 38.48ZM137.105 33.248C138.481 33.248 139.697 32.896 140.753 32.192C141.841 31.488 142.689 30.544 143.297 29.36C143.937 28.176 144.241 26.832 144.209 25.328C144.241 23.792 143.937 22.432 143.297 21.248C142.689 20.064 141.841 19.136 140.753 18.464C139.697 17.76 138.481 17.408 137.105 17.408C135.729 17.408 134.481 17.76 133.361 18.464C132.273 19.136 131.425 20.08 130.817 21.296C130.209 22.48 129.905 23.824 129.905 25.328C129.905 26.832 130.209 28.176 130.817 29.36C131.425 30.544 132.273 31.488 133.361 32.192C134.481 32.896 135.729 33.248 137.105 33.248ZM154.338 38V2.48H160.29V38H154.338ZM166.7 38V12.704H172.604V38H166.7ZM169.58 7.328C168.396 7.328 167.468 7.04 166.796 6.464C166.156 5.856 165.836 5.008 165.836 3.92C165.836 2.896 166.172 2.064 166.844 1.424C167.516 0.783998 168.428 0.463997 169.58 0.463997C170.796 0.463997 171.724 0.767998 172.364 1.376C173.036 1.952 173.372 2.8 173.372 3.92C173.372 4.912 173.036 5.728 172.364 6.368C171.692 7.008 170.764 7.328 169.58 7.328ZM190.458 38.48C187.93 38.48 185.674 37.92 183.69 36.8C181.706 35.648 180.138 34.08 178.986 32.096C177.834 30.112 177.258 27.856 177.258 25.328C177.258 22.8 177.834 20.544 178.986 18.56C180.138 16.576 181.706 15.024 183.69 13.904C185.674 12.752 187.93 12.176 190.458 12.176C192.954 12.176 195.194 12.752 197.178 13.904C199.162 15.024 200.714 16.576 201.834 18.56C202.986 20.544 203.562 22.8 203.562 25.328C203.562 27.856 202.986 30.112 201.834 32.096C200.714 34.08 199.162 35.648 197.178 36.8C195.194 37.92 192.954 38.48 190.458 38.48ZM190.458 33.248C191.834 33.248 193.05 32.896 194.106 32.192C195.194 31.488 196.042 30.544 196.65 29.36C197.29 28.176 197.594 26.832 197.562 25.328C197.594 23.792 197.29 22.432 196.65 21.248C196.042 20.064 195.194 19.136 194.106 18.464C193.05 17.76 191.834 17.408 190.458 17.408C189.082 17.408 187.834 17.76 186.714 18.464C185.626 19.136 184.778 20.08 184.17 21.296C183.562 22.48 183.258 23.824 183.258 25.328C183.258 26.832 183.562 28.176 184.17 29.36C184.778 30.544 185.626 31.488 186.714 32.192C187.834 32.896 189.082 33.248 190.458 33.248Z" fill="#0284C7"/>
</svg>
